<?xml version="1.0" encoding="UTF-8" standalone="no"?>
<!-- Created with Inkscape (http://www.inkscape.org/) -->

<svg
   xmlns:dc="http://purl.org/dc/elements/1.1/"
   xmlns:cc="http://creativecommons.org/ns#"
   xmlns:rdf="http://www.w3.org/1999/02/22-rdf-syntax-ns#"
   xmlns:svg="http://www.w3.org/2000/svg"
   xmlns="http://www.w3.org/2000/svg"
   xmlns:sodipodi="http://sodipodi.sourceforge.net/DTD/sodipodi-0.dtd"
   xmlns:inkscape="http://www.inkscape.org/namespaces/inkscape"
   width="130mm"
   height="130mm"
   viewBox="0 0 460.62991 460.62994"
   id="svg2"
   version="1.1"
   inkscape:version="0.91 r13725"
   sodipodi:docname="rock_symphony_square_logo.source.svg">
  <defs
     id="defs4" />
  <sodipodi:namedview
     id="base"
     pagecolor="#ffffff"
     bordercolor="#666666"
     borderopacity="0.77647059"
     inkscape:pageopacity="0"
     inkscape:pageshadow="2"
     inkscape:zoom="0.98994949"
     inkscape:cx="91.831263"
     inkscape:cy="195.75031"
     inkscape:document-units="px"
     inkscape:current-layer="text3336"
     showgrid="false"
     fit-margin-top="0"
     fit-margin-left="0"
     fit-margin-right="0"
     fit-margin-bottom="0"
     inkscape:window-width="1869"
     inkscape:window-height="1056"
     inkscape:window-x="51"
     inkscape:window-y="24"
     inkscape:window-maximized="1"
     units="mm" />
  <metadata
     id="metadata7">
    <rdf:RDF>
      <cc:Work
         rdf:about="">
        <dc:format>image/svg+xml</dc:format>
        <dc:type
           rdf:resource="http://purl.org/dc/dcmitype/StillImage" />
        <dc:title></dc:title>
      </cc:Work>
    </rdf:RDF>
  </metadata>
  <g
     inkscape:label="Canvas"
     inkscape:groupmode="layer"
     id="layer1"
     transform="translate(-99.076707,-1.948454)">
    <g
       transform="matrix(0.99000823,0,0,1.0100926,14.000001,-112)"
       style="font-style:normal;font-weight:normal;font-size:121.5223999px;line-height:89.99999762%;font-family:sans-serif;text-align:center;letter-spacing:0px;word-spacing:0px;writing-mode:lr-tb;text-anchor:middle;fill:#000000;fill-opacity:1;stroke:none;stroke-width:1px;stroke-linecap:butt;stroke-linejoin:miter;stroke-opacity:1"
       id="text3336">
      <g
         transform="scale(1.0100926,0.99000824)"
         style="font-style:normal;font-variant:normal;font-weight:normal;font-stretch:normal;font-size:100.00000763px;line-height:89.99999762%;font-family:'New Rocker';-inkscape-font-specification:'New Rocker, Normal';text-align:center;letter-spacing:0px;word-spacing:0px;writing-mode:lr-tb;text-anchor:middle;fill:#000000;fill-opacity:1;stroke:none;stroke-width:1px;stroke-linecap:butt;stroke-linejoin:miter;stroke-opacity:1"
         id="text3558">
        <path
           d="m 272.48838,312.07934 q -4.2,3 -6.6,7.2 -2.3,4.3 -3.7,8.5 -0.5,-2 -1.5,-4.3 -0.9,-2.3 -2.3,-4.5 -1.4,-2.1 -3.3,-3.9 -1.8,-1.9 -4,-3 0.9,-0.9 1.3,-2.3 0.5,-1.5 0.7,-4.1 0.3,-2.7 0.4,-6.8 0.1,-4.1 0.3,-10.3 -0.4,-0.2 -2.7,-1.9 -2.2,-1.7 -4.8,-3.8 -3.5,2.1 -6.9,4.1 -3.3,2 -6.1,3.7 0.4,7.5 1.1,14.2 0.8,6.6 2.1,12.1 -2.6,-1.3 -4.7,-1.8 -2,-0.5 -3.9,-0.5 -1.7,0 -3.4,0.3 -1.6,0.3 -3.4,0.7 -1.7,0.3 -3.6,0.6 -1.9,0.3 -4.2,0.3 -0.5,0 -1.1,0 -0.6,0 -1.1,-0.1 2.1,-1.3 3.9,-3.4 1.8,-2.2 3.1,-4.8 1.3,-2.6 2,-5.5 0.8,-2.9 0.8,-5.7 0,-5.1 -1.2,-9.9 -1.2,-4.9 -3.8,-8.1 2.8,-5.2 3.8,-9.8 1,-4.7 1,-9.3 0,-2.7 -0.3,-5.90001 -4.2,-0.6 -6.5,-3.1 -2.2,-2.6 -2.2,-8 4.2,0.9 6.9,1.3 2.7,0.3 5.5,0.3 1.6,0 3.5,-0.1 1.9,-0.2 4,-0.8 2.2,-0.6 4.7,-1.8 2.5,-1.3 5.3,-3.5 1.1,0.9 4.4,2.3 3.3,1.4 7.7,2.7 4.4,1.3 9.3,2.2 5,0.9 9.4,0.9 1.4,0 2.7,-0.1 1.3,-0.1 2.7,-0.3 -1.1,2.3 -4.3,4.8 -3.2,2.4 -7.1,3.9 -0.3,1.40001 -0.3,3.00001 0,1.6 0.1,3.4 0.2,1.8 0.4,3.6 0.3,1.8 0.7,3.4 0.4,1.6 0.9,2.7 -1,0.3 -3.5,1.6 -2.4,1.2 -5.8,3.2 2.3,2.1 5,4.4 2.7,2.3 5.5,4 -0.5,1.1 -0.8,3.8 -0.2,2.7 -0.2,6.2 0,2.6 0.2,5.3 0.2,2.6 0.7,5.1 0.5,2.4 1.2,4.4 0.8,2 2,3.2 z m -20.4,-58.00001 q -5.4,-0.8 -10,-1.4 -4.6,-0.6 -9.1,-1.7 -0.2,2.5 -0.2,5.40001 0,2.9 0,5.9 l 0,7.8 0,7.9 q 3.2,-1.9 6.6,-3.8 3.4,-2 6.3,-3.6 2.9,-1.7 4.8,-2.8 1.9,-1.2 2.1,-1.4 l -0.5,-12.30001 z"
           style="font-style:normal;font-variant:normal;font-weight:normal;font-stretch:normal;font-size:100.00000763px;line-height:89.99999762%;font-family:'New Rocker';-inkscape-font-specification:'New Rocker, Normal';text-align:center;writing-mode:lr-tb;text-anchor:middle"
           id="path3813" />
        <path
           d="m 298.90089,267.57934 q 6.9,2.3 11.5,3.1 4.6,0.8 8.5,0.8 2.2,0 3.3,0 1.2,-0.1 2.3,-0.3 -1.2,6.5 -1.2,15.3 0,10.8 1.8,21 -2.5,0.3 -5.3,1.3 -2.8,1 -5.6,2.5 -2.8,1.5 -5.4,3.5 -2.6,1.9 -4.7,4 -1.1,-0.9 -3.8,-1.9 -2.7,-0.9 -5.9,-1.7 -3.2,-0.8 -6.4,-1.3 -3.20001,-0.5 -5.30001,-0.5 -0.6,0 -1.2,0.1 -0.5,0 -1,0.1 1.4,-1.2 2,-4.7 0.7,-3.6 0.7,-9.3 0,-2.9 -0.2,-6.3 -0.2,-3.5 -0.6,-6.6 -0.3,-3.1 -0.7,-5.3 -0.4,-2.2 -0.8,-2.7 3.9,-0.7 8.70001,-3.6 4.8,-3 9.3,-7.5 z m 12,12.7 q -4.6,-0.4 -9,-1.3 -4.4,-1 -6.7,-2.2 0.5,4.2 0.7,7.9 0.2,3.6 0.2,7.3 0,2.9 -0.2,6.6 -0.1,3.6 -0.3,7.1 3.4,0.4 7.5,1.1 4.1,0.7 7.6,1.8 l 0.2,-28.3 z"
           style="font-style:normal;font-variant:normal;font-weight:normal;font-stretch:normal;font-size:100.00000763px;line-height:89.99999762%;font-family:'New Rocker';-inkscape-font-specification:'New Rocker, Normal';text-align:center;writing-mode:lr-tb;text-anchor:middle"
           id="path3815" />
        <path
           d="m 357.37277,319.07934 q -1.8,-1.1 -4.9,-2.3 -3.1,-1.1 -6.8,-2 -3.6,-0.9 -7.3,-1.5 -3.7,-0.6 -6.7,-0.6 0.7,-1 1.2,-3 0.6,-2 1,-4.6 0.4,-2.7 0.6,-5.8 0.2,-3.1 0.2,-6.4 0,-5.4 -0.6,-10.1 -0.5,-4.8 -1.6,-8.3 5.4,-0.9 11.1,-2.7 5.7,-1.9 10.6,-4.2 3.3,2.1 7.7,3.7 4.4,1.6 8.9,2.4 -1.9,3.8 -5.3,6.2 -3.3,2.3 -6.8,2.3 -2.3,0 -5.5,-1.6 -3.2,-1.6 -6.3,-4.5 0.5,3.8 0.7,7.6 0.3,3.7 0.3,7.5 0,3.3 -0.3,7.3 -0.2,3.9 -0.7,7 2.2,0.9 5.6,1.7 3.5,0.8 6.3,1 0.6,-3.8 3.1,-6.6 2.6,-2.9 6.8,-4.1 -0.1,0.8 -0.1,2.2 0,1.4 0,3.4 0,3.8 0.3,6.1 0.4,2.3 0.9,4 -1.6,0.3 -3.5,1 -1.8,0.6 -3.6,1.5 -1.7,0.8 -3.2,1.7 -1.4,0.9 -2.1,1.7 z"
           style="font-style:normal;font-variant:normal;font-weight:normal;font-stretch:normal;font-size:100.00000763px;line-height:89.99999762%;font-family:'New Rocker';-inkscape-font-specification:'New Rocker, Normal';text-align:center;writing-mode:lr-tb;text-anchor:middle"
           id="path3817" />
        <path
           d="m 403.59933,323.77934 q 0.5,-1.3 0.9,-3.2 0.5,-1.9 0.8,-4 0.3,-2.1 0.5,-4.3 0.2,-2.2 0.2,-4.1 l 0,-8.3 q -3,-2.1 -6.1,-3.7 -3.1,-1.7 -6.6,-3.1 l 0,14.1 q 0,6.3 2.7,7.3 l 0,1.5 -18.4,0 0,-1.5 q 2.7,-1 2.7,-6.4 l 0,-52.60001 q 0,-2.7 -0.2,-4.8 -0.1,-2.1 -0.5,-3.8 -0.3,-1.7 -0.9,-3.2 -0.5,-1.5 -1.4,-3 1.8,0.7 4.7,0.7 3.1,0 6.7,-1 3.6,-1 8.1,-3.2 -1.8,2.2 -2.7,5.9 -0.8,3.7 -0.8,9.7 l 0,20.80001 q 2.1,-1.4 4.2,-3.2 2.1,-1.8 4.7,-4.4 3,2 6.8,3.4 3.9,1.3 9.3,2.4 -0.9,2.9 -0.9,7 0,1.1 0.1,2.8 0.1,1.7 0.3,2.5 l -14.8,5.6 0,0.4 q 5.4,1.1 9.3,2.7 4,1.6 7.4,3.6 -0.4,2.1 -0.6,4.2 -0.1,2.1 -0.1,4.9 0,5.7 0.7,8.9 -2,0.9 -4.2,2.1 -2.2,1.2 -4.3,2.5 -2.1,1.3 -3.9,2.6 -1.7,1.3 -2.9,2.5 l -0.8,-0.3 z m -10.3,-34.9 15.3,-6.2 -0.2,-3.3 -15.1,-3 0,12.5 z"
           style="font-style:normal;font-variant:normal;font-weight:normal;font-stretch:normal;font-size:100.00000763px;line-height:89.99999762%;font-family:'New Rocker';-inkscape-font-specification:'New Rocker, Normal';text-align:center;writing-mode:lr-tb;text-anchor:middle"
           id="path3819" />
        <path
           d="m 115.64149,365.67934 q -0.2,1.6 -0.3,3.1 0,1.5 0,3.5 0,2 0.1,4 0.1,2 0.3,3.6 1.9,-0.7 3.90001,-1.2 2.1,-0.5 4.6,-0.9 2.6,-0.4 5.8,-0.7 3.2,-0.3 7.5,-0.6 -0.3,3.5 -0.3,10.2 0,5.7 0.2,10.2 0.2,4.4 0.7,6.7 -3.1,0 -6.3,0.4 -3.2,0.4 -6.1,1.1 -2.9,0.7 -5.4,1.7 -2.50001,1 -4.20001,2.2 -1.2,-1.1 -2.7,-1.9 -1.4,-0.8 -3.4,-1.3 -2,-0.6 -4.7,-0.9 -2.7,-0.4 -6.399997,-0.6 0.200001,-3.1 1.199997,-6.3 1.1,-3.3 2.7,-5.3 2.3,0 7.2,1.7 4.9,1.7 13.00001,5.3 0.6,-3.2 0.9,-5.8 0.3,-2.7 0.3,-5.6 0,-1.8 0,-2.6 0,-0.8 -0.1,-1.5 -4.4,0.4 -10.20001,1.5 -5.8,1 -10.9,2.4 0.4,-4.3 0.5,-6.6 0.1,-2.4 0.1,-4.3 0,-4.5 -0.5,-7.9 -0.4,-3.4 -1.4,-6.3 3.8,0 8.2,-1.3 4.4,-1.3 11.00001,-4.1 6.3,3.2 18.8,4.1 -1.8,4.3 -4.1,6.3 -2.3,1.9 -5.7,1.9 -1.5,0 -3.4,-0.3 -1.9,-0.3 -3.9,-0.9 -1.9,-0.6 -3.8,-1.3 -1.80001,-0.8 -3.20001,-1.7 z"
           style="font-style:normal;font-variant:normal;font-weight:normal;font-stretch:normal;font-size:100.00000763px;line-height:89.99999762%;font-family:'New Rocker';-inkscape-font-specification:'New Rocker, Normal';text-align:center;writing-mode:lr-tb;text-anchor:middle"
           id="path3821" />
        <path
           d="m 144.83525,361.67934 q 2.1,-0.2 4.7,-0.6 2.6,-0.5 5.2,-1.1 2.6,-0.6 4.8,-1.2 2.2,-0.7 3.5,-1.3 -0.2,1.7 -0.4,3.1 -0.1,1.4 -0.2,3 0,1.6 -0.1,3.5 0,1.9 0,4.5 l 0,18.2 4.2,3.2 9.6,-4.2 0,-13.6 q 0,-3.4 -0.2,-5.6 -0.1,-2.2 -0.6,-3.5 -0.5,-1.3 -1.4,-1.9 -0.8,-0.7 -2.3,-1.1 l 0,-1.3 q 4.8,-0.3 9.4,-1.4 4.7,-1.1 8.1,-2.8 l 0,46 q 0,6.3 0.1,10.5 0.2,4.30001 0.7,6.40001 -2.8,0 -6.1,0.8 -3.3,0.9 -6.7,2.4 -3.3,1.5 -6.5,3.5 -3.2,2.1 -5.7,4.5 -5.7,-4.2 -10.6,-6.1 -4.9,-1.9 -10.3,-1.9 0.8,-4.2 2.5,-7.70001 1.8,-3.4 4.1,-5.6 1.1,0.1 3.4,1 2.4,1 5.2,2.5 2.8,1.5 5.5,3.2 2.8,1.70001 4.8,3.30001 l 7.5,-2.40001 q -0.2,-1.3 -0.4,-2.9 -0.1,-1.5 -0.3,-4 -0.1,-2.4 -0.2,-6 0,-3.7 0,-9.3 -2.9,1.5 -5.1,2.8 -2.2,1.3 -4,2.6 -1.8,1.3 -3.4,2.7 -1.5,1.3 -3.1,2.9 -2,-1.8 -3.6,-3 -1.5,-1.3 -3,-2.3 -1.4,-1 -2.9,-1.8 -1.4,-0.9 -3.2,-1.9 0.4,-0.5 0.7,-2.5 0.4,-2.1 0.7,-4.9 0.3,-2.9 0.4,-6.2 0.2,-3.3 0.2,-6.3 0,-3.4 -0.3,-5.9 -0.2,-2.5 -0.8,-4.2 -0.6,-1.8 -1.6,-2.9 -0.9,-1.2 -2.4,-2.1 l 0.1,-1.1 z"
           style="font-style:normal;font-variant:normal;font-weight:normal;font-stretch:normal;font-size:100.00000763px;line-height:89.99999762%;font-family:'New Rocker';-inkscape-font-specification:'New Rocker, Normal';text-align:center;writing-mode:lr-tb;text-anchor:middle"
           id="path3823" />
        <path
           d="m 250.76026,414.27934 q 0.6,-2 1.1,-5 0.5,-2.9 0.8,-5.8 0.3,-3 0.5,-5.5 0.2,-2.5 0.2,-3.6 0,-5.7 -0.1,-11.4 0,-5.7 0,-11.4 l -1.3,-1.4 -11.20001,4.8 q -0.1,2.2 -0.1,5.8 0,3.6 0,7.3 l 0,9.1 q 0,6.3 2.7,7.3 l 0,1.5 -17.8,0 0,-1.5 q 1.2,-0.5 1.9,-2 0.8,-1.6 0.8,-4.4 l 0,-26.5 -1.3,-1.4 -11.1,4.8 0,22.2 q 0,6.3 2.7,7.3 l 0,1.5 -18.4,0 0,-1.5 q 1.2,-0.5 1.9,-2 0.8,-1.6 0.8,-4.4 l 0,-34.9 -3.7,-1.6 0,-1.1 q 3.5,-0.5 7.6,-1.3 4.1,-0.9 7.3,-1.7 l 1.8,3 0,8.2 q 3.9,-2.8 7,-5.5 3.2,-2.8 6.5,-6.6 1.7,1.6 3.1,2.9 1.4,1.2 2.8,2.2 1.5,1 3.1,2 1.6,0.9 3.7,1.9 l -0.6,2.7 q 3.7,-2.7 6.7,-5.4 3.00001,-2.7 6.20001,-6.3 1.7,1.6 3.1,2.9 1.4,1.2 2.8,2.2 1.5,1 3.1,2 1.6,0.9 3.7,1.9 -0.4,1.4 -0.7,3 -0.2,1.5 -0.4,3.9 -0.1,2.4 -0.2,5.9 -0.1,3.5 -0.1,8.7 0,4.4 0,7.3 0.1,2.8 0.2,4.6 0.1,1.8 0.3,3 0.2,1.1 0.4,2.1 -2,0.7 -4.1,1.9 -2,1.2 -4.1,2.7 -2,1.5 -3.8,3.1 -1.8,1.6 -3.2,3.1 l -0.6,-0.6 z"
           style="font-style:normal;font-variant:normal;font-weight:normal;font-stretch:normal;font-size:100.00000763px;line-height:89.99999762%;font-family:'New Rocker';-inkscape-font-specification:'New Rocker, Normal';text-align:center;writing-mode:lr-tb;text-anchor:middle"
           id="path3825" />
        <path
           d="m 278.73682,386.37934 q 0,-5.5 -0.2,-8.8 -0.2,-3.4 -0.8,-5.2 -0.5,-1.9 -1.4,-2.6 -0.8,-0.8 -2.1,-1.2 l 0,-1.1 q 1.3,-0.5 2.9,-1.7 1.6,-1.3 3.1,-2.8 1.5,-1.5 2.7,-3.1 1.2,-1.6 1.8,-2.8 2.1,1.4 3.8,3.7 1.7,2.3 2.7,4.6 1.8,-1.2 4.1,-2.4 2.3,-1.2 4.8,-2.2 2.6,-1.1 5.2,-1.9 2.7,-0.9 5.3,-1.5 2.4,2.6 5.2,4.3 2.8,1.7 5.7,2.5 -1.1,4.2 -1.3,8 -0.2,3.7 -0.2,7.5 0,4.7 0.1,8.2 0.1,3.5 0.3,6 0.2,2.5 0.5,4.1 0.3,1.5 0.8,2.4 -4.5,0.8 -9.2,3.1 -4.6,2.2 -9.2,5.4 -3.1,-1.3 -5.9,-2 -2.7,-0.7 -5.7,-1 l 0,10.1 q 0,2.60001 0.1,4.50001 0.2,2 0.5,3.7 0.3,1.8 0.9,3.3 0.6,1.6 1.5,3.3 -2,-0.7 -4.7,-0.7 -3.3,0 -7,1.1 -3.6,1.1 -7.8,3.1 2,-2.4 2.7,-6.4 0.8,-4 0.8,-9.2 l 0,-32.30001 z m 21.3,12.6 q 1.2,-1.1 3.2,-2.4 2.1,-1.4 3.7,-2.1 -0.2,-2.2 -0.3,-5.9 0,-3.8 0,-7.2 0,-3.2 0.1,-6.4 0.2,-3.2 0.4,-5.9 -2,0.1 -4.3,0.6 -2.2,0.4 -4.3,1 -2.1,0.6 -3.9,1.4 -1.8,0.7 -2.9,1.4 l 0,23.5 q 1.6,0.1 4,0.7 2.4,0.6 4.3,1.3 z"
           style="font-style:normal;font-variant:normal;font-weight:normal;font-stretch:normal;font-size:100.00000763px;line-height:89.99999762%;font-family:'New Rocker';-inkscape-font-specification:'New Rocker, Normal';text-align:center;writing-mode:lr-tb;text-anchor:middle"
           id="path3827" />
        <path
           d="m 356.35245,415.27934 q 0.6,-2 1.1,-5 0.5,-2.9 0.8,-5.8 0.3,-3 0.5,-5.5 0.2,-2.5 0.2,-3.6 0,-5.7 -0.1,-11.4 0,-5.7 0,-11.4 l -1.3,-1.4 -12.3,5.5 0,20.5 q 0,6.3 2.7,7.3 l 0,1.5 -18.4,0 0,-1.5 q 1.2,-0.5 1.9,-2 0.8,-1.6 0.8,-4.4 l 0,-52.6 q 0,-2.5 -0.1,-4.5 -0.1,-2 -0.5,-3.7 -0.3,-1.7 -0.9,-3.3 -0.6,-1.6 -1.5,-3.3 2,0.7 4.7,0.7 3.3,0 6.9,-1.1 3.7,-1.1 7.9,-3.1 -2,2.4 -2.8,6.4 -0.7,4 -0.7,9.2 l 0,27 q 4.3,-2.8 7.7,-5.6 3.4,-2.8 7,-6.6 1.7,1.6 3.1,2.9 1.4,1.2 2.8,2.2 1.5,1 3.1,2 1.6,0.9 3.7,1.9 -0.4,1.4 -0.7,3 -0.2,1.5 -0.4,3.9 -0.1,2.4 -0.2,5.9 -0.1,3.5 -0.1,8.7 0,4.4 0,7.3 0.1,2.8 0.2,4.6 0.1,1.8 0.3,3 0.2,1.1 0.4,2.1 -2,0.7 -4.1,1.9 -2,1.2 -4.1,2.7 -2,1.5 -3.8,3.1 -1.8,1.6 -3.2,3.1 l -0.6,-0.6 z"
           style="font-style:normal;font-variant:normal;font-weight:normal;font-stretch:normal;font-size:100.00000763px;line-height:89.99999762%;font-family:'New Rocker';-inkscape-font-specification:'New Rocker, Normal';text-align:center;writing-mode:lr-tb;text-anchor:middle"
           id="path3829" />
        <path
           d="m 399.09621,357.57934 q 6.9,2.3 11.5,3.1 4.6,0.8 8.5,0.8 2.2,0 3.3,0 1.2,-0.1 2.3,-0.3 -1.2,6.5 -1.2,15.3 0,10.8 1.8,21 -2.5,0.3 -5.3,1.3 -2.8,1 -5.6,2.5 -2.8,1.5 -5.4,3.5 -2.6,1.9 -4.7,4 -1.1,-0.9 -3.8,-1.9 -2.7,-0.9 -5.9,-1.7 -3.2,-0.8 -6.4,-1.3 -3.2,-0.5 -5.3,-0.5 -0.6,0 -1.2,0.1 -0.5,0 -1,0.1 1.4,-1.2 2,-4.7 0.7,-3.6 0.7,-9.3 0,-2.9 -0.2,-6.3 -0.2,-3.5 -0.6,-6.6 -0.3,-3.1 -0.7,-5.3 -0.4,-2.2 -0.8,-2.7 3.9,-0.7 8.7,-3.6 4.8,-3 9.3,-7.5 z m 12,12.7 q -4.6,-0.4 -9,-1.3 -4.4,-1 -6.7,-2.2 0.5,4.2 0.7,7.9 0.2,3.6 0.2,7.3 0,2.9 -0.2,6.6 -0.1,3.6 -0.3,7.1 3.4,0.4 7.5,1.1 4.1,0.7 7.6,1.8 l 0.2,-28.3 z"
           style="font-style:normal;font-variant:normal;font-weight:normal;font-stretch:normal;font-size:100.00000763px;line-height:89.99999762%;font-family:'New Rocker';-inkscape-font-specification:'New Rocker, Normal';text-align:center;writing-mode:lr-tb;text-anchor:middle"
           id="path3831" />
        <path
           d="m 448.76809,368.77934 q 4.3,-2.8 7.7,-5.6 3.4,-2.8 7,-6.6 1.7,1.6 3.1,2.9 1.4,1.2 2.8,2.2 1.5,1 3.1,2 1.6,0.9 3.7,1.9 -0.4,1.4 -0.7,3 -0.2,1.5 -0.4,3.9 -0.1,2.4 -0.2,5.9 -0.1,3.5 -0.1,8.7 0,4.4 0,7.3 0.1,2.8 0.2,4.6 0.1,1.8 0.3,3 0.2,1.1 0.4,2.1 -2,0.7 -4.1,1.9 -2,1.2 -4.1,2.7 -2,1.5 -3.8,3.1 -1.8,1.6 -3.2,3.1 l -0.6,-0.6 q 0.6,-2 1.1,-5 0.5,-2.9 0.8,-5.8 0.3,-3 0.5,-5.5 0.2,-2.5 0.2,-3.6 0,-5.7 -0.1,-11.4 0,-5.7 0,-11.4 l -1.3,-1.4 -12.3,5.5 0,21.5 q 0,6.3 2.7,7.3 l 0,1.5 -18.4,0 0,-1.5 q 1.2,-0.5 1.9,-2 0.8,-1.6 0.8,-4.4 l 0,-34.9 -3.7,-1.6 0,-1.1 q 3.5,-0.5 7.6,-1.3 4.1,-0.9 7.3,-1.7 l 1.8,3 0,8.3 z"
           style="font-style:normal;font-variant:normal;font-weight:normal;font-stretch:normal;font-size:100.00000763px;line-height:89.99999762%;font-family:'New Rocker';-inkscape-font-specification:'New Rocker, Normal';text-align:center;writing-mode:lr-tb;text-anchor:middle"
           id="path3833" />
        <path
           d="m 483.11652,361.67934 q 2.1,-0.2 4.7,-0.6 2.6,-0.5 5.2,-1.1 2.6,-0.6 4.80001,-1.2 2.2,-0.7 3.5,-1.3 -0.2,1.7 -0.4,3.1 -0.1,1.4 -0.2,3 0,1.6 -0.1,3.5 0,1.9 0,4.5 l 0,18.2 4.2,3.2 9.6,-4.2 0,-13.6 q 0,-3.4 -0.2,-5.6 -0.1,-2.2 -0.6,-3.5 -0.5,-1.3 -1.4,-1.9 -0.8,-0.7 -2.3,-1.1 l 0,-1.3 q 4.8,-0.3 9.4,-1.4 4.7,-1.1 8.1,-2.8 l 0,46 q 0,6.3 0.1,10.5 0.2,4.30001 0.7,6.40001 -2.8,0 -6.1,0.8 -3.3,0.9 -6.7,2.4 -3.3,1.5 -6.5,3.5 -3.2,2.1 -5.7,4.5 -5.7,-4.2 -10.60001,-6.1 -4.9,-1.9 -10.3,-1.9 0.8,-4.2 2.5,-7.70001 1.8,-3.4 4.1,-5.6 1.1,0.1 3.4,1 2.4,1 5.20001,2.5 2.8,1.5 5.5,3.2 2.8,1.70001 4.8,3.30001 l 7.5,-2.40001 q -0.2,-1.3 -0.4,-2.9 -0.1,-1.5 -0.3,-4 -0.1,-2.4 -0.2,-6 0,-3.7 0,-9.3 -2.9,1.5 -5.1,2.8 -2.2,1.3 -4,2.6 -1.8,1.3 -3.4,2.7 -1.5,1.3 -3.1,2.9 -2,-1.8 -3.60001,-3 -1.5,-1.3 -3,-2.3 -1.4,-1 -2.9,-1.8 -1.4,-0.9 -3.2,-1.9 0.4,-0.5 0.7,-2.5 0.4,-2.1 0.7,-4.9 0.3,-2.9 0.4,-6.2 0.2,-3.3 0.2,-6.3 0,-3.4 -0.3,-5.9 -0.2,-2.5 -0.8,-4.2 -0.6,-1.8 -1.6,-2.9 -0.9,-1.2 -2.4,-2.1 l 0.1,-1.1 z"
           style="font-style:normal;font-variant:normal;font-weight:normal;font-stretch:normal;font-size:100.00000763px;line-height:89.99999762%;font-family:'New Rocker';-inkscape-font-specification:'New Rocker, Normal';text-align:center;writing-mode:lr-tb;text-anchor:middle"
           id="path3835" />
      </g>
    </g>
    <g
       inkscape:groupmode="layer"
       id="layer2"
       inkscape:label="Hand" />
  </g>
</svg>
